<svg height="512pt" viewBox="0 -20 512 512" width="512pt" xmlns="http://www.w3.org/2000/svg"><path d="m452 0h-392c-33.085938 0-60 26.914062-60 60v352c0 33.085938 26.914062 60 60 60h392c33.085938 0 60-26.914062 60-60v-352c0-33.085938-26.914062-60-60-60zm-392 40h392c11.027344 0 20 8.972656 20 20v262h-40.441406c-8.253906-23.277344-30.484375-40-56.558594-40s-48.304688 16.722656-56.558594 40h-278.441406v-262c0-11.027344 8.972656-20 20-20zm335 302c0 11.027344-8.972656 20-20 20s-20-8.972656-20-20 8.972656-20 20-20 20 8.972656 20 20zm57 90h-392c-11.027344 0-20-8.972656-20-20v-50h278.441406c8.253906 23.277344 30.484375 40 56.558594 40s48.304688-16.722656 56.558594-40h40.441406v50c0 11.027344-8.972656 20-20 20zm-268-206c0-27.0625 21.9375-49 49-49 3.074219 0 6.082031.296875 9 .839844v-73.722656h20c21.589844 0 36.492188-7.113282 37.660156-7.6875l29.339844-16.429688v45l-10.589844 6.765625c-1.839844.980469-15.347656 7.882813-36.410156 10.921875v83.3125c0 27.0625-21.9375 49-49 49s-49-21.9375-49-49zm0 0"/></svg>